<svg width="47" height="46" viewBox="0 0 47 46" fill="none" xmlns="http://www.w3.org/2000/svg">
<path fill-rule="evenodd" clip-rule="evenodd" d="M23.0476 34.8311C18.887 34.8311 14.6601 32.3613 12.1932 29.0923C0.357773 29.0923 0 46 0 46H46.0923C46.0923 46 47.0214 29.0173 33.7116 29.0173C31.2476 32.3267 27.2082 34.8311 23.0476 34.8311Z" fill="#7BB37D"/>
<path fill-rule="evenodd" clip-rule="evenodd" d="M32.9612 14.562C32.9612 19.4265 28.5208 28.7287 23.0388 28.7287C17.5654 28.7287 13.1221 19.4237 13.1221 14.562C13.1221 9.70027 17.5625 5.75321 23.0388 5.75321C28.5208 5.7561 32.9612 9.70316 32.9612 14.562Z" fill="#7BB37D"/>
<path fill-rule="evenodd" clip-rule="evenodd" d="M37.3876 10.3639C37.3876 9.45217 36.1181 8.71643 34.5428 8.71066V6.83234C34.5428 6.55247 34.6495 0 23.0738 0C11.5038 0 11.6106 6.55247 11.6106 6.83234V8.77702C11.5817 8.77702 11.5586 8.76836 11.5327 8.76836C9.96595 8.76836 8.70508 9.49257 8.70508 10.3899V18.3359C8.70508 19.2275 9.96883 19.9546 11.5327 19.9546C13.0965 19.9546 14.366 19.2275 14.366 18.3359V10.3899C14.366 10.2658 14.2881 10.1533 14.2419 10.0379V7.87104C14.2419 7.67196 13.411 2.72659 23.0738 2.72659C32.7395 2.72659 31.7354 7.67196 31.7354 7.87104V10.1533C31.7181 10.2254 31.6632 10.2889 31.6632 10.3639V18.4918C31.6632 19.4064 32.9414 20.1479 34.5254 20.1479C34.5601 20.1479 34.586 20.1364 34.6207 20.1364V23.1053H31.7815V25.904H37.4165L37.3876 10.3639Z" fill="#7BB37D"/>
</svg>
