<svg width="169" height="165" viewBox="0 0 169 165" fill="none" xmlns="http://www.w3.org/2000/svg">
<ellipse cx="84.2079" cy="82.2669" rx="84.2079" ry="82.1065" fill="#7BB37D"/>
<path d="M135.334 52.4348C135.334 42.7541 127.189 34.8792 117.177 34.8791C108.98 34.8791 102.116 40.196 99.8649 47.4189L62.7202 47.4189C61.7916 47.4139 53.4807 47.5543 47.5148 53.3076C43.821 56.8588 41.9534 61.6139 41.9534 67.4324L31.5778 67.4324L47.1412 87.496L62.7047 67.4324L52.329 67.4324C52.329 58.2884 60.2871 57.4808 62.7047 57.4507L99.8649 57.4507C102.116 64.6736 108.98 69.9905 117.177 69.9905C127.189 69.9905 135.334 62.1105 135.334 52.4348ZM109.395 52.4348C109.395 48.2867 112.886 44.911 117.177 44.911C121.467 44.911 124.958 48.2867 124.958 52.4348C124.958 56.583 121.467 59.9587 117.177 59.9587C112.886 59.9587 109.395 56.583 109.395 52.4348ZM67.0468 117.642L104.223 117.642C112.554 117.616 124.958 112.239 124.958 97.5278L135.334 97.5278L119.771 77.4642L104.207 97.5278L114.583 97.5278C114.583 106.702 106.599 107.565 104.207 107.61L67.0468 107.61C64.7953 100.387 57.9319 95.07 49.7351 95.07C39.7227 95.07 31.5778 102.945 31.5778 112.626C31.5778 122.306 39.7227 130.181 49.7351 130.181C57.9319 130.181 64.7953 124.864 67.0468 117.642ZM41.9534 112.626C41.9534 108.477 45.4448 105.102 49.7351 105.102C54.0254 105.102 57.5168 108.477 57.5168 112.626C57.5168 116.774 54.0254 120.149 49.7351 120.149C45.4448 120.149 41.9534 116.774 41.9534 112.626Z" fill="white"/>
</svg>
