<svg width="90" height="90" viewBox="0 0 90 90" fill="none" xmlns="http://www.w3.org/2000/svg">
<circle cx="45" cy="45" r="45" fill="#7BB37D"/>
<path d="M78.6709 46.2559L74.9556 38.8433C72.9291 34.7851 71.3631 31.5802 66.5999 31.5802C68.4189 30.4678 69.63 28.5059 69.63 26.2734C69.63 22.8153 66.7241 20 63.1501 20C59.5775 20 56.6703 22.8146 56.6703 26.2734C56.6703 28.5059 57.8814 30.4678 59.7004 31.5802C56.2329 31.5802 54.4535 33.2952 52.9615 35.7919C52.4012 36.7278 50.6067 40.3676 50.6067 40.3676C50.832 37.6413 48.5353 35.5297 45.9637 35.5297C43.3907 35.5297 41.1852 37.6259 41.312 40.2691C41.312 40.2691 39.8664 37.4167 39.5023 36.7406C37.8861 33.7411 36.1272 31.5828 32.2262 31.5828C34.0446 30.4704 35.2564 28.5078 35.2564 26.276C35.2564 22.8178 32.3491 20.0026 28.7758 20.0026C25.2026 20.0026 22.296 22.8172 22.296 26.276C22.296 28.5078 23.5078 30.4704 25.3261 31.5828C20.5846 31.5828 18.9976 34.7883 16.9711 38.8458L16.936 38.9175L13.2564 46.2585C12.4628 47.8321 13.154 49.7186 14.7728 50.5099C15.4104 50.8214 17.801 51.4873 19.1707 49.0571L20.7921 46.0161L18.2403 57.9788H22.29V66.0306C22.29 67.8889 23.852 69.4011 25.7715 69.4011C27.0493 69.4011 28.168 68.7313 28.7732 67.7353C29.3811 68.7211 30.4944 69.3832 31.7644 69.3832C33.6838 69.3832 35.2451 67.871 35.2451 66.012V57.9788H38.1385L38.1061 57.0027C39.0114 56.8824 39.6628 56.2178 39.9714 55.509L41.3167 52.8767V66.8084C41.3167 68.2305 42.5113 69.3864 43.9795 69.3864C44.7697 69.3864 45.48 69.0518 45.9683 68.5202C46.4566 69.0589 47.1721 69.3985 47.9683 69.3985C49.4372 69.3985 50.6305 68.242 50.6305 66.8212V52.8761L52.1145 55.7834C52.4746 56.4058 53.1056 56.844 53.8198 56.988L53.7868 57.9769H56.6802V66.0101C56.6802 67.8684 58.2415 69.3806 60.1616 69.3806C61.4316 69.3806 62.5442 68.7192 63.1521 67.7334C63.7587 68.7294 64.8773 69.3992 66.1545 69.3992C68.074 69.3992 69.636 67.8876 69.636 66.0287V57.9769H73.6863L71.1358 46.0129L72.7566 49.0539C74.1257 51.4847 76.5162 50.8188 77.1539 50.5067C78.7733 49.716 79.4638 47.8296 78.6709 46.2559ZM57.7037 26.2728C57.7037 23.3603 60.1425 20.9998 63.1508 20.9998C66.1592 20.9998 68.5979 23.3603 68.5979 26.2728C68.5979 29.1859 66.1592 31.5463 63.1508 31.5463C60.1425 31.5463 57.7037 29.1859 57.7037 26.2728ZM45.9637 36.4873C47.9888 36.4873 49.6308 38.0769 49.6308 40.0382C49.6308 41.9995 47.9888 43.5884 45.9637 43.5884C43.9378 43.5884 42.2966 41.9995 42.2966 40.0382C42.2966 38.0769 43.9385 36.4873 45.9637 36.4873ZM23.33 26.2753C23.33 23.3628 25.7688 21.0024 28.7772 21.0024C31.7855 21.0024 34.2243 23.3628 34.2243 26.2753C34.2243 29.1885 31.7855 31.5489 28.7772 31.5489C25.7688 31.5489 23.33 29.1885 23.33 26.2753ZM34.2131 56.979V66.012C34.2131 67.3215 33.1169 68.3827 31.765 68.3827C30.4125 68.3827 29.3163 67.3215 29.3163 66.012V56.979H28.2202V66.0299C28.2202 67.3387 27.124 68.4 25.7715 68.4C24.4189 68.4 23.3228 67.3387 23.3228 66.0299V56.979H19.5083L23.3234 39.0889L18.2476 48.6061C17.8366 49.4179 16.6519 50.2649 15.2254 49.6105C14.1061 49.0814 13.6376 47.7803 14.1847 46.696L17.865 39.3531C19.8711 35.3371 21.2229 32.5807 25.2178 32.5807H32.3326C36.3274 32.5807 37.68 35.3371 39.6853 39.3531L41.9212 43.7599C40.4537 44.2652 39.3312 45.5133 38.5317 46.95L34.2131 39.0883L36.6195 50.9167L35.3172 53.5151C34.3175 55.6868 36.3162 56.9086 37.0285 56.9784H34.2131V56.979ZM38.0064 48.1245L37.9436 48.2773C37.7566 48.6496 37.2941 49.5734 37.2941 49.5734L36.5739 45.5152L38.0064 48.1245ZM52.9774 55.2224L49.599 48.8883V66.8206C49.599 67.6912 48.8696 68.3981 47.969 68.3981C47.0697 68.3981 46.3396 67.6918 46.3396 66.8206V56.7609H45.6102V66.8078C45.6102 67.679 44.8807 68.3859 43.9808 68.3859C43.0808 68.3859 42.3507 67.6797 42.3507 66.8078V48.8883L38.9631 55.2224C38.7028 55.7393 38.0163 56.3041 36.9518 55.8915C36.2019 55.5499 35.8953 54.6736 36.2587 53.952L38.7087 49.0642C40.0441 46.3909 40.9434 44.5563 43.6028 44.5563H48.339C50.9972 44.5563 51.8984 46.3909 53.2324 49.0642L55.6825 53.952C56.0459 54.6736 55.7347 55.5391 54.9894 55.8915C54.7766 55.9913 53.6613 56.3931 52.9774 55.2224ZM53.9143 48.1347L55.3541 45.5126L54.6339 49.5714C54.6339 49.5714 53.9883 48.2825 53.9143 48.1347ZM76.7019 49.6085C75.2754 50.2623 74.0907 49.4154 73.6804 48.6042L68.6045 39.087L72.419 56.9771H68.6045V66.028C68.6045 67.3368 67.5084 68.3981 66.1558 68.3981C64.804 68.3981 63.7078 67.3368 63.7078 66.028V56.9765H62.6116V66.0095C62.6116 67.3189 61.5155 68.3801 60.1629 68.3801C58.8111 68.3801 57.7142 67.3189 57.7142 66.0095V56.9765H54.8982C55.6111 56.9067 57.6098 55.6849 56.6108 53.5132L55.3085 50.9148L57.7142 39.0863L53.393 46.9551C52.6087 45.4915 51.6282 44.2947 50.0061 43.7976L52.2427 39.3512C54.248 35.3352 55.6005 32.5788 59.5954 32.5788H66.7109C70.705 32.5788 72.0576 35.3352 74.0636 39.3512L77.7432 46.6941C78.2897 47.7784 77.8212 49.0795 76.7019 49.6085Z" fill="white"/>
<path d="M77.7442 46.2559L74.0288 38.8433C72.0023 34.7851 70.4364 31.5802 65.6731 31.5802C67.4921 30.4678 68.7033 28.5059 68.7033 26.2734C68.7033 22.8153 65.7973 20 62.2234 20C58.6508 20 55.7435 22.8146 55.7435 26.2734C55.7435 28.5059 56.9547 30.4678 58.7737 31.5802C55.3061 31.5802 53.5267 33.2952 52.0348 35.7919C51.4745 36.7278 49.6799 40.3676 49.6799 40.3676C49.9052 37.6413 47.6085 35.5297 45.0369 35.5297C42.464 35.5297 40.2584 37.6259 40.3853 40.2691C40.3853 40.2691 38.9396 37.4167 38.5755 36.7406C36.9594 33.7411 35.2005 31.5828 31.2995 31.5828C33.1178 30.4704 34.3296 28.5078 34.3296 26.276C34.3296 22.8178 31.4224 20.0026 27.8491 20.0026C24.2758 20.0026 21.3692 22.8172 21.3692 26.276C21.3692 28.5078 22.581 30.4704 24.3994 31.5828C19.6579 31.5828 18.0708 34.7883 16.0443 38.8458L16.0093 38.9175L12.3296 46.2585C11.5361 47.8321 12.2272 49.7186 13.846 50.5099C14.4836 50.8214 16.8742 51.4873 18.2439 49.0571L19.8654 46.0161L17.3136 57.9788H21.3633V66.0306C21.3633 67.8889 22.9252 69.4011 24.8447 69.4011C26.1226 69.4011 27.2412 68.7313 27.8464 67.7353C28.4543 68.7211 29.5677 69.3832 30.8376 69.3832C32.7571 69.3832 34.3184 67.871 34.3184 66.012V57.9788H37.2118L37.1794 57.0027C38.0846 56.8824 38.7361 56.2178 39.0446 55.509L40.3899 52.8767V66.8084C40.3899 68.2305 41.5845 69.3864 43.0527 69.3864C43.8429 69.3864 44.5532 69.0518 45.0415 68.5202C45.5298 69.0589 46.2454 69.3985 47.0416 69.3985C48.5104 69.3985 49.7037 68.242 49.7037 66.8212V52.8761L51.1877 55.7834C51.5478 56.4058 52.1788 56.844 52.8931 56.988L52.8601 57.9769H55.7534V66.0101C55.7534 67.8684 57.3148 69.3806 59.2349 69.3806C60.5048 69.3806 61.6175 68.7192 62.2254 67.7334C62.8319 68.7294 63.9506 69.3992 65.2278 69.3992C67.1472 69.3992 68.7092 67.8876 68.7092 66.0287V57.9769H72.7595L70.2091 46.0129L71.8299 49.0539C73.1989 51.4847 75.5895 50.8188 76.2271 50.5067C77.8466 49.716 78.537 47.8296 77.7442 46.2559ZM56.7769 26.2728C56.7769 23.3603 59.2157 20.9998 62.224 20.9998C65.2324 20.9998 67.6712 23.3603 67.6712 26.2728C67.6712 29.1859 65.2324 31.5463 62.224 31.5463C59.2157 31.5463 56.7769 29.1859 56.7769 26.2728ZM45.0369 36.4873C47.0621 36.4873 48.704 38.0769 48.704 40.0382C48.704 41.9995 47.0621 43.5884 45.0369 43.5884C43.0111 43.5884 41.3698 41.9995 41.3698 40.0382C41.3698 38.0769 43.0117 36.4873 45.0369 36.4873ZM22.4033 26.2753C22.4033 23.3628 24.8421 21.0024 27.8504 21.0024C30.8587 21.0024 33.2975 23.3628 33.2975 26.2753C33.2975 29.1885 30.8587 31.5489 27.8504 31.5489C24.8421 31.5489 22.4033 29.1885 22.4033 26.2753ZM33.2863 56.979V66.012C33.2863 67.3215 32.1901 68.3827 30.8383 68.3827C29.4857 68.3827 28.3896 67.3215 28.3896 66.012V56.979H27.2934V66.0299C27.2934 67.3387 26.1972 68.4 24.8447 68.4C23.4922 68.4 22.396 67.3387 22.396 66.0299V56.979H18.5815L22.3967 39.0889L17.3209 48.6061C16.9099 49.4179 15.7252 50.2649 14.2986 49.6105C13.1793 49.0814 12.7109 47.7803 13.258 46.696L16.9383 39.3531C18.9443 35.3371 20.2962 32.5807 24.291 32.5807H31.4058C35.4007 32.5807 36.7532 35.3371 38.7586 39.3531L40.9945 43.7599C39.527 44.2652 38.4044 45.5133 37.6049 46.95L33.2863 39.0883L35.6927 50.9167L34.3904 53.5151C33.3907 55.6868 35.3894 56.9086 36.1017 56.9784H33.2863V56.979ZM37.0796 48.1245L37.0168 48.2773C36.8299 48.6496 36.3673 49.5734 36.3673 49.5734L35.6471 45.5152L37.0796 48.1245ZM52.0506 55.2224L48.6723 48.8883V66.8206C48.6723 67.6912 47.9428 68.3981 47.0422 68.3981C46.143 68.3981 45.4129 67.6918 45.4129 66.8206V56.7609H44.6834V66.8078C44.6834 67.679 43.9539 68.3859 43.054 68.3859C42.1541 68.3859 41.424 67.6797 41.424 66.8078V48.8883L38.0364 55.2224C37.776 55.7393 37.0895 56.3041 36.0251 55.8915C35.2751 55.5499 34.9685 54.6736 35.332 53.952L37.782 49.0642C39.1173 46.3909 40.0166 44.5563 42.6761 44.5563H47.4123C50.0704 44.5563 50.9717 46.3909 52.3057 49.0642L54.7557 53.952C55.1191 54.6736 54.8079 55.5391 54.0626 55.8915C53.8498 55.9913 52.7345 56.3931 52.0506 55.2224ZM52.9876 48.1347L54.4273 45.5126L53.7071 49.5714C53.7071 49.5714 53.0616 48.2825 52.9876 48.1347ZM75.7752 49.6085C74.3486 50.2623 73.1639 49.4154 72.7536 48.6042L67.6778 39.087L71.4922 56.9771H67.6778V66.028C67.6778 67.3368 66.5816 68.3981 65.2291 68.3981C63.8772 68.3981 62.7811 67.3368 62.7811 66.028V56.9765H61.6849V66.0095C61.6849 67.3189 60.5887 68.3801 59.2362 68.3801C57.8843 68.3801 56.7875 67.3189 56.7875 66.0095V56.9765H53.9714C54.6844 56.9067 56.6831 55.6849 55.684 53.5132L54.3817 50.9148L56.7875 39.0863L52.4663 46.9551C51.682 45.4915 50.7014 44.2947 49.0793 43.7976L51.3159 39.3512C53.3212 35.3352 54.6738 32.5788 58.6686 32.5788H65.7841C69.7783 32.5788 71.1308 35.3352 73.1368 39.3512L76.8165 46.6941C77.3629 47.7784 76.8944 49.0795 75.7752 49.6085Z" fill="white"/>
</svg>
