<svg width="90" height="90" viewBox="0 0 90 90" fill="none" xmlns="http://www.w3.org/2000/svg">
<circle cx="45" cy="45" r="45" fill="#7BB37D"/>
<path d="M28.9322 47.11C32.6176 47.11 35.6359 44.1235 35.6359 40.4063C35.6359 36.7208 32.6176 33.7344 28.9322 33.7344C25.2468 33.7344 22.2285 36.7208 22.2285 40.4381C22.2285 44.1235 25.2468 47.11 28.9322 47.11ZM28.9322 34.8464C32.014 34.8464 34.4921 37.3563 34.4921 40.4063C34.4921 43.4563 32.014 45.998 28.9322 45.998C25.8504 45.998 23.3723 43.4881 23.3723 40.4381C23.3723 37.388 25.8504 34.8464 28.9322 34.8464Z" fill="white"/>
<path d="M34.9689 48.2853C34.4605 48.1899 33.9204 48.2853 33.4439 48.5712C30.6798 50.0962 27.185 50.0962 24.4209 48.5712C23.9443 48.2853 23.4042 48.2217 22.8959 48.317C16.9229 49.429 14 52.6697 14 58.1978V62.328H43.8647V58.1978C43.8647 52.6697 40.9418 49.429 34.9689 48.2853ZM42.721 61.2161H15.1438V58.1978C15.1438 53.2415 17.6854 50.4457 23.1183 49.3972C23.3407 49.3655 23.6266 49.3972 23.8808 49.5561C25.1834 50.2868 26.6766 50.6999 28.1699 50.7952V57.0223H29.2819V50.7952C30.9339 50.7316 32.5543 50.3186 33.984 49.5243C34.2381 49.3655 34.5241 49.3337 34.7465 49.3655C40.1793 50.4457 42.721 53.2415 42.721 58.1978V61.2161Z" fill="white"/>
<path d="M30.7742 57.0225C31.1602 57.0225 31.4731 56.7096 31.4731 56.3235C31.4731 55.9375 31.1602 55.6246 30.7742 55.6246C30.3881 55.6246 30.0752 55.9375 30.0752 56.3235C30.0752 56.7096 30.3881 57.0225 30.7742 57.0225Z" fill="white"/>
<path d="M30.7742 54.0677C31.1602 54.0677 31.4731 53.7548 31.4731 53.3688C31.4731 52.9827 31.1602 52.6698 30.7742 52.6698C30.3881 52.6698 30.0752 52.9827 30.0752 53.3688C30.0752 53.7548 30.3881 54.0677 30.7742 54.0677Z" fill="white"/>
<path d="M57.5259 53.7818C61.2114 53.7818 64.2296 50.7954 64.2296 47.0782C64.2296 43.3927 61.2114 40.4062 57.5259 40.4062C53.8405 40.4062 50.8223 43.3927 50.8223 47.1099C50.8223 50.7954 53.8405 53.7818 57.5259 53.7818ZM57.5259 41.5182C60.6077 41.5182 63.0859 44.0281 63.0859 47.0782C63.0859 50.1282 60.6077 52.6699 57.5259 52.6699C54.4442 52.6699 51.966 50.1599 51.966 47.1099C51.966 44.0599 54.4442 41.5182 57.5259 41.5182Z" fill="white"/>
<path d="M63.5626 54.9571C63.0543 54.8618 62.5142 54.9571 62.0376 55.2431C59.2735 56.7681 55.7787 56.7681 53.0146 55.2431C52.5381 54.9571 51.998 54.8936 51.4896 54.9889C45.5167 56.1009 42.5938 59.3415 42.5938 64.8697V68.9999H72.4585V64.8697C72.4585 59.3415 69.5356 56.1009 63.5626 54.9571ZM71.3147 67.8879H43.7375V64.8697C43.7375 59.9134 46.2792 57.1176 51.712 56.0691C51.9344 56.0373 52.2204 56.0691 52.4745 56.228C53.7771 56.9587 55.2704 57.3717 56.7636 57.467V63.6942H57.8756V57.467C59.5277 57.4035 61.148 56.9905 62.5777 56.1962C62.8319 56.0373 63.1178 56.0056 63.3402 56.0373C68.7731 57.1176 71.3147 59.9134 71.3147 64.8697V67.8879Z" fill="white"/>
<path d="M59.3679 63.6944C59.7539 63.6944 60.0669 63.3814 60.0669 62.9954C60.0669 62.6094 59.7539 62.2964 59.3679 62.2964C58.9819 62.2964 58.6689 62.6094 58.6689 62.9954C58.6689 63.3814 58.9819 63.6944 59.3679 63.6944Z" fill="white"/>
<path d="M59.3679 60.7396C59.7539 60.7396 60.0669 60.4267 60.0669 60.0406C60.0669 59.6546 59.7539 59.3417 59.3679 59.3417C58.9819 59.3417 58.6689 59.6546 58.6689 60.0406C58.6689 60.4267 58.9819 60.7396 59.3679 60.7396Z" fill="white"/>
<path d="M52.7603 21.3756C56.4458 21.3756 59.464 18.3891 59.464 14.6719C59.464 10.9865 56.4458 8 52.7603 8C49.0749 8 46.0566 10.9865 46.0566 14.7037C46.0566 18.3891 49.0749 21.3756 52.7603 21.3756ZM52.7603 9.11199C55.8421 9.11199 58.3202 11.6219 58.3202 14.6719C58.3202 17.7219 55.8421 20.2636 52.7603 20.2636C49.6785 20.2636 47.2004 17.7537 47.2004 14.7037C47.2004 11.6537 49.6785 9.11199 52.7603 9.11199Z" fill="white"/>
<path d="M58.797 22.5509C58.2887 22.4556 57.7485 22.5509 57.272 22.8368C54.5079 24.3618 51.0131 24.3618 48.249 22.8368C47.7724 22.5509 47.2323 22.4873 46.724 22.5827C40.7511 23.6946 37.8281 26.9353 37.8281 32.4634V36.5937H67.6929V32.4634C67.6929 26.9353 64.7699 23.6946 58.797 22.5509ZM66.5491 35.4817H38.9719V32.4634C38.9719 27.5072 41.5136 24.7113 46.9464 23.6629C47.1688 23.6311 47.4547 23.6629 47.7089 23.8217C49.0115 24.5525 50.5048 24.9655 51.998 25.0608V31.2879H53.11V25.0608C54.7621 24.9972 56.3824 24.5842 57.8121 23.7899C58.0663 23.6311 58.3522 23.5993 58.5746 23.6311C64.0074 24.7113 66.5491 27.5072 66.5491 32.4634V35.4817Z" fill="white"/>
<path d="M54.6023 31.2881C54.9883 31.2881 55.3012 30.9752 55.3012 30.5892C55.3012 30.2031 54.9883 29.8902 54.6023 29.8902C54.2163 29.8902 53.9033 30.2031 53.9033 30.5892C53.9033 30.9752 54.2163 31.2881 54.6023 31.2881Z" fill="white"/>
<path d="M54.6023 28.3333C54.9883 28.3333 55.3012 28.0204 55.3012 27.6344C55.3012 27.2484 54.9883 26.9354 54.6023 26.9354C54.2163 26.9354 53.9033 27.2484 53.9033 27.6344C53.9033 28.0204 54.2163 28.3333 54.6023 28.3333Z" fill="white"/>
</svg>
