<svg width="150" height="134" viewBox="0 0 150 134" fill="none" xmlns="http://www.w3.org/2000/svg">
<path d="M73.0778 14.7484V2.92376C73.0778 1.64398 71.9482 0.500129 70.6691 0.5H50.2097C48.9305 0.500151 47.8011 1.64401 47.801 2.92372V14.7484H2.90874H2.90868C1.6295 14.7486 0.500122 15.8926 0.5 17.1723V17.1723V54.086C0.5 55.3658 1.62957 56.5096 2.90869 56.5097H47.801V61.2812H23.4277V61.2812L23.4192 61.2813C22.8204 61.2915 22.2383 61.4998 21.7955 61.7752C16.9921 64.6426 12.1632 67.4347 7.32457 70.2324C5.6915 71.1767 4.0573 72.1216 2.42258 73.0703C1.63248 73.5133 1.28058 74.385 1.28058 75.1881C1.28058 75.9907 1.63219 76.8621 2.42161 77.3053C6.02285 79.4205 9.62412 81.5206 13.2254 83.6208C16.1045 85.2998 18.9836 86.9788 21.8627 88.6655L21.8627 88.6655L21.8698 88.6696C22.3277 88.9278 22.8881 89.1398 23.4135 89.1547L23.4206 89.1549H23.4277H47.801V130.258C47.801 131.538 48.9306 132.682 50.2097 132.682H70.6691C71.9484 132.682 73.0777 131.538 73.0778 130.258V89.1549H96.9143C98.1935 89.1549 99.3229 88.0109 99.323 86.7311V63.7051C99.323 62.4254 98.1935 61.2814 96.9143 61.2812H73.0778V56.5097H116.111C116.818 56.5372 117.473 56.3298 117.949 56.0991L117.97 56.089L117.99 56.0771C127.511 50.3297 137.038 44.591 146.565 38.8521L148.409 37.7412L73.0778 14.7484ZM73.0778 14.7484H116.539H116.558L116.577 14.75C117.121 14.7923 117.58 15.0284 117.957 15.2228C118.037 15.2643 118.114 15.3039 118.188 15.3393L118.209 15.3495L118.229 15.3617L119.624 16.2053C129.214 22.0051 138.804 27.8046 148.41 33.5773M73.0778 14.7484L148.41 33.5773M148.41 33.5773C149.163 34.0293 149.5 34.875 149.5 35.6592C149.5 36.4431 149.163 37.2887 148.41 37.7407L148.41 33.5773ZM52.6185 17.1724V5.34763H68.2603V17.1723C68.2603 18.4521 69.3899 19.5959 70.669 19.5961H114.249V19.6127V19.6773V19.7419V19.8065V19.8711V19.9356V20.0002V20.0648V20.1294V20.194V20.2585V20.3231V20.3877V20.4523V20.5169V20.5815V20.646V20.7106V20.7752V20.8398V20.9044V20.969V21.0335V21.0981V21.1627V21.2273V21.2919V21.3564V21.421V21.4856V21.5502V21.6148V21.6794V21.7439V21.8085V21.8731V21.9377V22.0023V22.0668V22.1314V22.196V22.2606V22.3252V22.3898V22.4543V22.5189V22.5835V22.6481V22.7127V22.7773V22.8418V22.9064V22.971V23.0356V23.1002V23.1647V23.2293V23.2939V23.3585V23.4231V23.4877V23.5522V23.6168V23.6814V23.746V23.8106V23.8751V23.9397V24.0043V24.0689V24.1335V24.1981V24.2626V24.3272V24.3918V24.4564V24.521V24.5855V24.6501V24.7147V24.7793V24.8439V24.9085V24.973V25.0376V25.1022V25.1668V25.2314V25.296V25.3605V25.4251V25.4897V25.5543V25.6189V25.6834V25.748V25.8126V25.8772V25.9418V26.0064V26.0709V26.1355V26.2001V26.2647V26.3293V26.3938V26.4584V26.523V26.5876V26.6522V26.7168V26.7813V26.8459V26.9105V26.9751V27.0397V27.1042V27.1688V27.2334V27.298V27.3626V27.4272V27.4917V27.5563V27.6209V27.6855V27.7501V27.8147V27.8792V27.9438V28.0084V28.073V28.1376V28.2021V28.2667V28.3313V28.3959V28.4605V28.5251V28.5896V28.6542V28.7188V28.7834V28.848V28.9125V28.9771V29.0417V29.1063V29.1709V29.2355V29.3V29.3646V29.4292V29.4938V29.5584V29.623V29.6875V29.7521V29.8167V29.8813V29.9459V30.0104V30.075V30.1396V30.2042V30.2688V30.3334V30.3979V30.4625V30.5271V30.5917V30.6563V30.7208V30.7854V30.85V30.9146V30.9792V31.0438V31.1083V31.1729V31.2375V31.3021V31.3667V31.4313V31.4958V31.5604V31.625V31.6896V31.7542V31.8187V31.8833V31.9479V32.0125V32.0771V32.1417V32.2062V32.2708V32.3354V32.4V32.4646V32.5292V32.5937V32.6583V32.7229V32.7875V32.8521V32.9166V32.9812V33.0458V33.1104V33.175V33.2396V33.3041V33.3687V33.4333V33.4979V33.5625V33.627V33.6916V33.7562V33.8208V33.8854V33.95V34.0145V34.0791V34.1437V34.2083V34.2729V34.3375V34.402V34.4666V34.5312V34.5958V34.6604V34.7249V34.7895V34.8541V34.9187V34.9833V35.0479V35.1124V35.177V35.2416V35.3062V35.3708V35.4353V35.4999V35.5645V35.6291V35.6937V35.7583V35.8228V35.8874V35.952V36.0166V36.0812V36.1458V36.2103V36.2749V36.3395V36.4041V36.4687V36.5332V36.5978V36.6624V36.727V36.7916V36.8562V36.9207V36.9853V37.0499V37.1145V37.1791V37.2436V37.3082V37.3728V37.4374V37.502V37.5666V37.6311V37.6957V37.7603V37.8249V37.8895V37.9541V38.0186V38.0832V38.1478V38.2124V38.277V38.3415V38.4061V38.4707V38.5353V38.5999V38.6645V38.729V38.7936V38.8582V38.9228V38.9874V39.0519V39.1165V39.1811V39.2457V39.3103V39.3749V39.4394V39.504V39.5686V39.6332V39.6978V39.7624V39.8269V39.8915V39.9561V40.0207V40.0853V40.1498V40.2144V40.279V40.3436V40.4082V40.4728V40.5373V40.6019V40.6665V40.7311V40.7957V40.8602V40.9248V40.9894V41.054V41.1186V41.1832V41.2477V41.3123V41.3769V41.4415V41.5061V41.5707V41.6352V41.6998V41.7644V41.829V41.8936V41.9581V42.0227V42.0873V42.1519V42.2165V42.2811V42.3456V42.4102V42.4748V42.5394V42.604V42.6685V42.7331V42.7977V42.8623V42.9269V42.9915V43.056V43.1206V43.1852V43.2498V43.3144V43.379V43.4435V43.5081V43.5727V43.6373V43.7019V43.7664V43.831V43.8956V43.9602V44.0248V44.0894V44.1539V44.2185V44.2831V44.3477V44.4123V44.4768V44.5414V44.606V44.6706V44.7352V44.7998V44.8643V44.9289V44.9935V45.0581V45.1227V45.1873V45.2518V45.3164V45.381V45.4456V45.5102V45.5747V45.6393V45.7039V45.7685V45.8331V45.8977V45.9622V46.0268V46.0914V46.156V46.2206V46.2851V46.3497V46.4143V46.4789V46.5435V46.6081V46.6726V46.7372V46.8018V46.8664V46.931V46.9955V47.0601V47.1247V47.1893V47.2539V47.3185V47.383V47.4476V47.5122V47.5768V47.6414V47.706V47.7705V47.8351V47.8997V47.9643V48.0289V48.0934V48.158V48.2226V48.2872V48.3518V48.4164V48.4809V48.5455V48.6101V48.6747V48.7393V48.8038V48.8684V48.933V48.9976V49.0622V49.1268V49.1913V49.2559V49.3205V49.3851V49.4497V49.5143V49.5788V49.6434V49.708V49.7726V49.8372V49.9017V49.9663V50.0309V50.0955V50.1601V50.2247V50.2892V50.3538V50.4184V50.483V50.5476V50.6121V50.6767V50.7413V50.8059V50.8705V50.9351V50.9996V51.0642V51.1288V51.1934V51.258V51.3225V51.3871V51.4517V51.5163V51.5809V51.6455V51.6621H70.6691C69.3898 51.6623 68.2604 52.8062 68.2603 54.0859V63.7051C68.2603 64.9848 69.3898 66.129 70.6691 66.129H94.5055V84.3072H70.6691C69.3898 84.3072 68.2604 85.4514 68.2603 86.731V127.834H52.6185V86.7311C52.6185 85.4513 51.4889 84.3074 50.2098 84.3072H25.7172V66.129H50.2097C51.489 66.129 52.6184 64.9847 52.6185 63.7052V54.086C52.6185 52.8062 51.4889 51.6622 50.2098 51.6621H5.31748V19.5961H50.2097H50.2098C51.4889 19.5959 52.6184 18.4521 52.6185 17.1724ZM119.067 21.5403V21.4903C126.609 26.0957 134.171 30.6686 141.732 35.2408L142.468 35.6858C134.806 40.2495 127.188 44.8864 119.572 49.522L119.067 49.8296V49.778V49.7192V49.6604V49.6015V49.5427V49.4839V49.425V49.3662V49.3074V49.2486V49.1897V49.1309V49.0721V49.0132V48.9544V48.8956V48.8368V48.7779V48.7191V48.6603V48.6014V48.5426V48.4838V48.425V48.3661V48.3073V48.2485V48.1896V48.1308V48.072V48.0132V47.9543V47.8955V47.8367V47.7778V47.719V47.6602V47.6014V47.5425V47.4837V47.4249V47.366V47.3072V47.2484V47.1896V47.1307V47.0719V47.0131V46.9542V46.8954V46.8366V46.7778V46.7189V46.6601V46.6013V46.5424V46.4836V46.4248V46.366V46.3071V46.2483V46.1895V46.1306V46.0718V46.013V45.9542V45.8953V45.8365V45.7777V45.7188V45.66V45.6012V45.5424V45.4835V45.4247V45.3659V45.307V45.2482V45.1894V45.1306V45.0717V45.0129V44.9541V44.8952V44.8364V44.7776V44.7188V44.6599V44.6011V44.5423V44.4834V44.4246V44.3658V44.307V44.2481V44.1893V44.1305V44.0716V44.0128V43.954V43.8952V43.8363V43.7775V43.7187V43.6598V43.601V43.5422V43.4834V43.4245V43.3657V43.3069V43.248V43.1892V43.1304V43.0716V43.0127V42.9539V42.8951V42.8362V42.7774V42.7186V42.6598V42.6009V42.5421V42.4833V42.4244V42.3656V42.3068V42.248V42.1891V42.1303V42.0715V42.0126V41.9538V41.895V41.8362V41.7773V41.7185V41.6597V41.6008V41.542V41.4832V41.4244V41.3655V41.3067V41.2479V41.189V41.1302V41.0714V41.0126V40.9537V40.8949V40.8361V40.7772V40.7184V40.6596V40.6008V40.5419V40.4831V40.4243V40.3654V40.3066V40.2478V40.189V40.1301V40.0713V40.0125V39.9536V39.8948V39.836V39.7772V39.7183V39.6595V39.6007V39.5418V39.483V39.4242V39.3654V39.3065V39.2477V39.1889V39.1301V39.0712V39.0124V38.9536V38.8947V38.8359V38.7771V38.7183V38.6594V38.6006V38.5418V38.4829V38.4241V38.3653V38.3064V38.2476V38.1888V38.13V38.0711V38.0123V37.9535V37.8946V37.8358V37.777V37.7182V37.6593V37.6005V37.5417V37.4828V37.424V37.3652V37.3064V37.2475V37.1887V37.1299V37.071V37.0122V36.9534V36.8946V36.8357V36.7769V36.7181V36.6592V36.6004V36.5416V36.4828V36.4239V36.3651V36.3063V36.2474V36.1886V36.1298V36.071V36.0121V35.9533V35.8945V35.8356V35.7768V35.718V35.6592V35.6003V35.5415V35.4827V35.4239V35.365V35.3062V35.2474V35.1885V35.1297V35.0709V35.0121V34.9532V34.8944V34.8356V34.7767V34.7179V34.6591V34.6003V34.5414V34.4826V34.4238V34.3649V34.3061V34.2473V34.1884V34.1296V34.0708V34.012V33.9531V33.8943V33.8355V33.7766V33.7178V33.659V33.6002V33.5413V33.4825V33.4237V33.3648V33.306V33.2472V33.1884V33.1295V33.0707V33.0119V32.9531V32.8942V32.8354V32.7766V32.7177V32.6589V32.6001V32.5413V32.4824V32.4236V32.3648V32.3059V32.2471V32.1883V32.1295V32.0706V32.0118V31.953V31.8941V31.8353V31.7765V31.7177V31.6588V31.6V31.5412V31.4823V31.4235V31.3647V31.3059V31.247V31.1882V31.1294V31.0705V31.0117V30.9529V30.8941V30.8352V30.7764V30.7176V30.6587V30.5999V30.5411V30.4823V30.4234V30.3646V30.3058V30.2469V30.1881V30.1293V30.0705V30.0116V29.9528V29.894V29.8351V29.7763V29.7175V29.6587V29.5998V29.541V29.4822V29.4233V29.3645V29.3057V29.2469V29.188V29.1292V29.0704V29.0115V28.9527V28.8939V28.8351V28.7762V28.7174V28.6586V28.5997V28.5409V28.4821V28.4233V28.3644V28.3056V28.2468V28.1879V28.1291V28.0703V28.0115V27.9526V27.8938V27.835V27.7761V27.7173V27.6585V27.5997V27.5408V27.482V27.4232V27.3643V27.3055V27.2467V27.1879V27.129V27.0702V27.0114V26.9525V26.8937V26.8349V26.7761V26.7172V26.6584V26.5996V26.5407V26.4819V26.4231V26.3643V26.3054V26.2466V26.1878V26.1289V26.0701V26.0113V25.9525V25.8936V25.8348V25.776V25.7171V25.6583V25.5995V25.5407V25.4818V25.423V25.3642V25.3053V25.2465V25.1877V25.1289V25.07V25.0112V24.9524V24.8935V24.8347V24.7759V24.7171V24.6582V24.5994V24.5406V24.4817V24.4229V24.3641V24.3053V24.2464V24.1876V24.1288V24.0699V24.0111V23.9523V23.8935V23.8346V23.7758V23.717V23.6581V23.5993V23.5405V23.4817V23.4228V23.364V23.3052V23.2464V23.1875V23.1287V23.0699V23.011V22.9522V22.8934V22.8346V22.7757V22.7169V22.6581V22.5992V22.5404V22.4816V22.4228V22.3639V22.3051V22.2463V22.1874V22.1286V22.0698V22.011V21.9521V21.8933V21.8345V21.7756V21.7168V21.658V21.5992V21.5403ZM8.44639 75.1997C12.6471 72.843 16.7767 70.367 20.8997 67.8946V67.9061V67.938V67.9699V68.0019V68.0338V68.0658V68.0977V68.1296V68.1616V68.1935V68.2255V68.2574V68.2893V68.3213V68.3532V68.3852V68.4171V68.449V68.481V68.5129V68.5448V68.5768V68.6087V68.6407V68.6726V68.7045V68.7365V68.7684V68.8004V68.8323V68.8642V68.8962V68.9281V68.9601V68.992V69.0239V69.0559V69.0878V69.1198V69.1517V69.1836V69.2156V69.2475V69.2794V69.3114V69.3433V69.3753V69.4072V69.4391V69.4711V69.503V69.535V69.5669V69.5988V69.6308V69.6627V69.6946V69.7266V69.7585V69.7905V69.8224V69.8543V69.8863V69.9182V69.9501V69.9821V70.014V70.046V70.0779V70.1098V70.1418V70.1737V70.2057V70.2376V70.2695V70.3015V70.3334V70.3654V70.3973V70.4292V70.4612V70.4931V70.525V70.557V70.5889V70.6209V70.6528V70.6847V70.7167V70.7486V70.7806V70.8125V70.8444V70.8764V70.9083V70.9402V70.9722V71.0041V71.0361V71.068V71.0999V71.1319V71.1638V71.1958V71.2277V71.2596V71.2916V71.3235V71.3555V71.3874V71.4193V71.4513V71.4832V71.5151V71.5471V71.579V71.611V71.6429V71.6748V71.7068V71.7387V71.7707V71.8026V71.8345V71.8665V71.8984V71.9303V71.9623V71.9942V72.0262V72.0581V72.09V72.122V72.1539V72.1859V72.2178V72.2497V72.2817V72.3136V72.3455V72.3775V72.4094V72.4414V72.4733V72.5052V72.5372V72.5691V72.6011V72.633V72.6649V72.6969V72.7288V72.7607V72.7927V72.8246V72.8566V72.8885V72.9204V72.9524V72.9843V73.0163V73.0482V73.0801V73.1121V73.144V73.1759V73.2079V73.2398V73.2718V73.3037V73.3356V73.3676V73.3995V73.4314V73.4634V73.4953V73.5273V73.5592V73.5911V73.6231V73.655V73.687V73.7189V73.7508V73.7828V73.8147V73.8466V73.8786V73.9105V73.9425V73.9744V74.0063V74.0383V74.0702V74.1022V74.1341V74.166V74.198V74.2299V74.2618V74.2938V74.3257V74.3577V74.3896V74.4215V74.4535V74.4854V74.5173V74.5493V74.5812V74.6132V74.6451V74.677V74.709V74.7409V74.7729V74.8048V74.8367V74.8687V74.9006V74.9325V74.9645V74.9964V75.0284V75.0603V75.0922V75.1242V75.1561V75.1881V75.22V75.2519V75.2839V75.3158V75.3477V75.3797V75.4116V75.4436V75.4755V75.5074V75.5394V75.5713V75.6033V75.6352V75.6671V75.6991V75.731V75.7629V75.7949V75.8268V75.8588V75.8907V75.9226V75.9546V75.9865V76.0185V76.0504V76.0823V76.1143V76.1462V76.1781V76.2101V76.242V76.274V76.3059V76.3378V76.3698V76.4017V76.4337V76.4656V76.4975V76.5295V76.5614V76.5933V76.6253V76.6572V76.6892V76.7211V76.753V76.785V76.8169V76.8489V76.8808V76.9127V76.9447V76.9766V77.0085V77.0405V77.0724V77.1044V77.1363V77.1682V77.2002V77.2321V77.2641V77.296V77.3279V77.3599V77.3918V77.4237V77.4557V77.4876V77.5196V77.5515V77.5834V77.6154V77.6473V77.6793V77.7112V77.7431V77.7751V77.807V77.8389V77.8709V77.9028V77.9348V77.9667V77.9986V78.0306V78.0625V78.0945V78.1264V78.1583V78.1903V78.2222V78.2541V78.2861V78.318V78.35V78.3819V78.4138V78.4458V78.4777V78.5097V78.5416V78.5735V78.6055V78.6374V78.6693V78.7013V78.7332V78.7652V78.7971V78.829V78.861V78.8929V78.9249V78.9568V78.9887V79.0207V79.0526V79.0845V79.1165V79.1484V79.1804V79.2123V79.2442V79.2762V79.3081V79.34V79.372V79.4039V79.4359V79.4678V79.4997V79.5317V79.5636V79.5956V79.6275V79.6594V79.6914V79.7233V79.7553V79.7872V79.8191V79.8511V79.883V79.9149V79.9469V79.9788V80.0108V80.0427V80.0746V80.1066V80.1385V80.1705V80.2024V80.2343V80.2663V80.2982V80.3301V80.3621V80.394V80.426V80.4579V80.4898V80.5218V80.5537V80.5857V80.6176V80.6495V80.6815V80.7134V80.7454V80.7773V80.8092V80.8412V80.8731V80.905V80.937V80.9689V81.0009V81.0328V81.0647V81.0967V81.1286V81.1606V81.1925V81.2244V81.2564V81.2883V81.3203V81.3522V81.3841V81.4161V81.448V81.4799V81.5119V81.5438V81.5758V81.6077V81.6396V81.6716V81.7035V81.7355V81.7674V81.7993V81.8313V81.8632V81.8951V81.9271V81.959V81.991V82.0229V82.0548V82.0868V82.1187V82.1507V82.1826V82.2145V82.2465V82.2784V82.3104V82.3423V82.3742V82.4062V82.4381V82.47V82.4974C16.776 80.1092 12.6704 77.6893 8.56279 75.2683C8.52399 75.2454 8.48519 75.2225 8.44639 75.1997Z" fill="#7BB37D" stroke="#7BB37D"/>
</svg>
