<svg width="90" height="90" viewBox="0 0 90 90" fill="none" xmlns="http://www.w3.org/2000/svg">
<circle cx="45" cy="45" r="45" fill="#7BB37D"/>
<path d="M46.0006 42.5787C51.4304 42.5787 55.8773 38.1787 55.8773 32.7021C55.8773 27.2723 51.4304 22.8723 46.0006 22.8723C40.5708 22.8723 36.124 27.2723 36.124 32.7489C36.124 38.1787 40.5708 42.5787 46.0006 42.5787ZM46.0006 24.5106C50.5411 24.5106 54.1922 28.2085 54.1922 32.7021C54.1922 37.1958 50.5411 40.9404 46.0006 40.9404C41.4602 40.9404 37.8091 37.2426 37.8091 32.7489C37.8091 28.2553 41.4602 24.5106 46.0006 24.5106Z" fill="white"/>
<path d="M54.8937 44.3104C54.1448 44.17 53.349 44.3104 52.6469 44.7317C48.5745 46.9785 43.4256 46.9785 39.3532 44.7317C38.6511 44.3104 37.8554 44.2168 37.1064 44.3572C28.3064 45.9955 24 50.77 24 58.9147V64.9998H68.0001V58.9147C68.0001 50.77 63.6937 45.9955 54.8937 44.3104ZM66.315 63.3615H25.6851V58.9147C25.6851 51.6126 29.4298 47.4934 37.4341 45.9487C37.7617 45.9019 38.183 45.9487 38.5575 46.1828C40.4766 47.2594 42.6766 47.8679 44.8766 48.0083V57.1828H46.5149V48.0083C48.949 47.9147 51.3362 47.3062 53.4426 46.1359C53.8171 45.9019 54.2384 45.8551 54.566 45.9019C62.5703 47.4934 66.315 51.6126 66.315 58.9147V63.3615Z" fill="white"/>
<path d="M48.7144 57.1829C49.2831 57.1829 49.7442 56.7219 49.7442 56.1531C49.7442 55.5844 49.2831 55.1234 48.7144 55.1234C48.1456 55.1234 47.6846 55.5844 47.6846 56.1531C47.6846 56.7219 48.1456 57.1829 48.7144 57.1829Z" fill="white"/>
<path d="M48.7144 52.8298C49.2831 52.8298 49.7442 52.3688 49.7442 51.8001C49.7442 51.2313 49.2831 50.7703 48.7144 50.7703C48.1456 50.7703 47.6846 51.2313 47.6846 51.8001C47.6846 52.3688 48.1456 52.8298 48.7144 52.8298Z" fill="white"/>
</svg>
