<svg width="169" height="165" viewBox="0 0 169 165" fill="none" xmlns="http://www.w3.org/2000/svg">
<ellipse cx="84.2079" cy="82.2669" rx="84.2079" ry="82.1065" fill="#7BB37D"/>
<path d="M102.723 93.8106L109.65 59.5359C114.327 57.0547 117.525 52.3232 117.525 46.8415C117.525 43.0157 115.965 39.3465 113.189 36.6412C110.413 33.936 106.648 32.4161 102.723 32.4161C98.7967 32.4161 95.0317 33.936 92.2558 36.6412C89.4798 39.3465 87.9203 43.0157 87.9203 46.8415C87.9203 52.3232 91.1176 57.0547 95.7951 59.5359L102.723 93.8106ZM102.723 38.1863C107.637 38.1863 111.604 42.0523 111.604 46.8415C111.604 51.6308 107.637 55.4968 102.723 55.4968C97.8082 55.4968 93.8412 51.6308 93.8412 46.8415C93.8412 42.0523 97.8082 38.1863 102.723 38.1863ZM112.906 65.883L132.327 58.2087V110.14L103.433 121.854L67.1973 110.14L37.5929 121.68V69.749L67.1973 58.2087L92.4794 66.3447L102.723 108.467L112.906 65.883Z" fill="white"/>
</svg>
