<svg width="200" height="126" viewBox="0 0 200 126" fill="none" xmlns="http://www.w3.org/2000/svg">
<circle cx="63" cy="63" r="63" fill="#7BB37D" fill-opacity="0.3"/>
<path d="M195.572 118.051H174.916V56.2476C174.916 55.2024 174.503 54.1847 173.76 53.442C173.018 52.6994 172 52.2868 170.955 52.2868H134.401V46.0707C134.401 45.0255 133.988 44.0354 133.273 43.2927C124.031 33.9136 114.762 24.5619 105.521 15.1827C104.778 14.4401 103.788 14 102.715 14C101.67 14 100.652 14.4126 99.9096 15.1552C90.5305 24.5344 81.1513 33.8861 71.7721 43.2652C71.0295 44.0079 70.6169 44.998 70.6169 46.0707V118.079H49.9607C47.7878 118.079 46 119.839 46 122.039C46 124.212 47.7603 126 49.9607 126H195.544C197.717 126 199.505 124.24 199.505 122.039C199.532 119.839 197.772 118.051 195.572 118.051ZM109.289 117.831H95.7839V85.3202H109.289V117.831ZM167.022 60.1807V117.804H134.401V60.1807H167.022ZM126.507 47.6935V56.2476V117.831H115.202V82.3497C115.202 81.5796 114.9 80.8094 114.322 80.2593C113.772 79.7092 113.002 79.3792 112.232 79.3792H92.7859C92.0157 79.3792 91.2456 79.6817 90.6955 80.2593C90.1454 80.8094 89.8153 81.5796 89.8153 82.3497V117.804H78.5383V47.666C86.5973 39.6071 94.6287 31.5756 102.688 23.5167C110.637 31.6031 118.558 39.6346 126.507 47.6935Z" fill="#7BB37D"/>
<path d="M102.521 41.9448C100.871 41.9448 99.5508 43.2651 99.5508 44.9153V53.2768H91.1893C89.539 53.2768 88.2188 54.5971 88.2188 56.2474C88.2188 57.8977 89.539 59.2179 91.1893 59.2179H99.5508V67.5794C99.5508 69.2297 100.871 70.5499 102.521 70.5499C104.172 70.5499 105.492 69.2297 105.492 67.5794V59.2179H113.853C115.504 59.2179 116.824 57.8977 116.824 56.2474C116.824 54.5971 115.504 53.2768 113.853 53.2768H105.492V44.9153C105.492 43.2651 104.144 41.9448 102.521 41.9448Z" fill="#7BB37D"/>
</svg>
