<svg width="154" height="112" viewBox="0 0 154 112" fill="none" xmlns="http://www.w3.org/2000/svg">
<path d="M149.572 104.051H128.916V42.2476C128.916 41.2024 128.503 40.1847 127.76 39.442C127.018 38.6994 126 38.2868 124.955 38.2868H88.4008V32.0707C88.4008 31.0255 87.9882 30.0354 87.2731 29.2927C78.0314 19.9136 68.7623 10.5619 59.5206 1.18271C58.778 0.440079 57.7878 0 56.7151 0C55.6699 0 54.6523 0.412569 53.9096 1.1552C44.5305 10.5344 35.1513 19.8861 25.7721 29.2652C25.0295 30.0079 24.6169 30.998 24.6169 32.0707V104.079H3.96071C1.78782 104.079 0 105.839 0 108.039C0 110.212 1.76032 112 3.96071 112H149.544C151.717 112 153.505 110.24 153.505 108.039C153.532 105.839 151.772 104.051 149.572 104.051ZM63.2888 103.831H49.7839V71.3202H63.2888V103.831ZM121.022 46.1807V103.804H88.4008V46.1807H121.022ZM80.5069 33.6935V42.2476V103.831H69.2024V68.3497C69.2024 67.5796 68.8998 66.8094 68.3222 66.2593C67.7721 65.7092 67.002 65.3792 66.2318 65.3792H46.7859C46.0157 65.3792 45.2456 65.6817 44.6955 66.2593C44.1454 66.8094 43.8153 67.5796 43.8153 68.3497V103.804H32.5383V33.666C40.5973 25.6071 48.6287 17.5756 56.6876 9.5167C64.6365 17.6031 72.558 25.6346 80.5069 33.6935Z" fill="#7BB37D"/>
</svg>
