<svg width="169" height="166" viewBox="0 0 169 166" fill="none" xmlns="http://www.w3.org/2000/svg">
<ellipse cx="84.2079" cy="83.0674" rx="84.2079" ry="82.1065" fill="#7BB37D"/>
<path d="M77.9152 100.998C75.0152 102.876 71.5152 103.963 67.8152 103.963C64.1152 103.963 60.6152 102.876 57.7152 100.998C51.9152 102.777 47.5152 107.719 46.6152 114.046L46.0152 121.46C45.8152 123.635 47.6152 125.513 49.8152 125.513H85.6152C87.8152 125.513 89.6152 123.635 89.4152 121.46L88.8152 114.046C88.2152 107.818 83.7152 102.777 77.9152 100.998Z" fill="white"/>
<path d="M67.8152 99.2183C75.3262 99.2183 81.4152 93.1994 81.4152 85.7747C81.4152 78.35 75.3262 72.3311 67.8152 72.3311C60.3041 72.3311 54.2152 78.35 54.2152 85.7747C54.2152 93.1994 60.3041 99.2183 67.8152 99.2183Z" fill="white"/>
<path d="M116.615 31.6047H83.5152C80.6152 31.6047 78.2152 33.9771 78.2152 36.8438V64.3242C78.2152 67.1909 80.6152 69.5633 83.5152 69.5633H88.4152V78.2621C88.4152 79.9426 90.5152 80.8322 91.7152 79.646L102.315 69.5633H116.515C119.415 69.5633 121.815 67.1909 121.815 64.3242V36.8438C121.815 33.9771 119.515 31.6047 116.615 31.6047ZM111.815 48.1127L106.615 52.561C106.315 52.7587 106.215 53.1541 106.315 53.4507L107.915 60.0736C108.115 60.8644 107.215 61.4575 106.515 61.0621L100.615 57.5035C100.315 57.3058 99.9152 57.3058 99.6152 57.5035L93.7152 61.0621C93.0152 61.4575 92.1152 60.8644 92.3152 60.0736L93.9152 53.4507C94.0152 53.1541 93.9152 52.7587 93.6152 52.561L88.4152 48.1127C87.8152 47.6185 88.1152 46.5311 88.9152 46.5311L95.8152 45.938C96.1152 45.938 96.5152 45.7403 96.6152 45.3449L99.3152 39.0185C99.6152 38.2277 100.715 38.2277 101.015 39.0185L103.715 45.3449C103.815 45.6415 104.115 45.8392 104.515 45.938L111.415 46.5311C112.115 46.63 112.415 47.6185 111.815 48.1127Z" fill="white"/>
</svg>
