<svg width="135" height="112" viewBox="0 0 135 112" fill="none" xmlns="http://www.w3.org/2000/svg">
<path d="M112.494 2.81092C104.523 -0.464715 95.6513 -0.842893 87.4288 1.74242C79.2064 4.32774 72.1554 9.71227 67.5071 16.9558C63.215 10.205 56.8206 5.04597 49.3057 2.27076C41.7907 -0.504458 33.5705 -0.742507 25.9069 1.59315C18.2432 3.9288 11.5597 8.70907 6.88224 15.2002C2.20479 21.6913 -0.208056 29.5344 0.0140719 37.5257C0.0365317 38.2864 0.360579 39.0072 0.915111 39.5299C1.46964 40.0526 2.20936 40.3344 2.97196 40.3136C3.73455 40.2928 4.45772 39.971 4.98279 39.4189C5.50787 38.8668 5.79195 38.1294 5.77271 37.3686C5.57332 30.2292 7.86974 23.2429 12.2682 17.6077C16.6667 11.9724 22.8933 8.03928 29.8803 6.48258C36.8673 4.92588 44.1795 5.84261 50.5632 9.07559C56.9469 12.3086 62.0044 17.6564 64.8685 24.2021C65.0925 24.7144 65.4615 25.1503 65.9302 25.4564C66.3989 25.7625 66.9469 25.9256 67.5071 25.9256C68.0673 25.9256 68.6153 25.7625 69.084 25.4564C69.5527 25.1503 69.9217 24.7144 70.1457 24.2021C73.4001 16.762 79.4701 10.9067 87.0331 7.91204C94.596 4.9174 103.039 5.02621 110.522 8.21475C118.005 11.4033 123.921 17.4131 126.982 24.9346C130.042 32.4561 129.999 40.8795 126.862 48.3694C121.584 60.9815 86.731 90.4405 67.5116 105.478C61.69 100.889 42.583 85.62 27.4621 71.1722C26.9106 70.6468 26.1726 70.3612 25.4102 70.3781C24.6478 70.3951 23.9233 70.7132 23.3958 71.2626C22.8684 71.8121 22.581 72.5479 22.5969 73.3085C22.6128 74.0691 22.9306 74.7923 23.4805 75.3194C41.6629 92.6981 65.5028 111.21 65.7412 111.396C66.2463 111.788 66.8676 112 67.5071 112C68.1466 112 68.7678 111.788 69.2729 111.396C71.5381 109.641 124.792 68.2279 132.175 50.5821C134.027 46.1562 134.987 41.4098 135 36.6137C135.013 31.8177 134.079 27.0661 132.252 22.6301C130.424 18.1941 127.739 14.1607 124.349 10.7601C120.959 7.35952 116.931 4.65837 112.494 2.81088L112.494 2.81092Z" fill="#7BB37D"/>
</svg>
